<mxfile host="Electron" agent="Mozilla/5.0 (Windows NT 10.0; Win64; x64) AppleWebKit/537.36 (KHTML, like Gecko) draw.io/24.7.17 Chrome/128.0.6613.36 Electron/32.0.1 Safari/537.36" version="24.7.17">
  <diagram name="ページ1" id="guPInMqZS3sGWf6pYxQW">
    <mxGraphModel dx="1560" dy="924" grid="1" gridSize="10" guides="1" tooltips="1" connect="1" arrows="1" fold="1" page="1" pageScale="1" pageWidth="827" pageHeight="1169" math="0" shadow="0">
      <root>
        <mxCell id="0" />
        <mxCell id="1" parent="0" />
        <mxCell id="dteGoB8JbddZwmDOOZu2-1" value="&lt;font style=&quot;vertical-align: inherit;&quot; dir=&quot;auto&quot;&gt;&lt;font style=&quot;vertical-align: inherit;&quot; dir=&quot;auto&quot;&gt;顧客&lt;/font&gt;&lt;/font&gt;" style="shape=umlActor;verticalLabelPosition=bottom;verticalAlign=top;html=1;outlineConnect=0;" parent="1" vertex="1">
          <mxGeometry x="360" y="10" width="30" height="60" as="geometry" />
        </mxCell>
        <mxCell id="dteGoB8JbddZwmDOOZu2-3" value="" style="endArrow=classic;html=1;rounded=0;entryX=0.972;entryY=0.367;entryDx=0;entryDy=0;entryPerimeter=0;fillColor=#ffe6cc;strokeColor=#d79b00;" parent="1" source="dteGoB8JbddZwmDOOZu2-1" target="dteGoB8JbddZwmDOOZu2-5" edge="1">
          <mxGeometry width="50" height="50" relative="1" as="geometry">
            <mxPoint x="280" y="180" as="sourcePoint" />
            <mxPoint x="280" y="120" as="targetPoint" />
          </mxGeometry>
        </mxCell>
        <mxCell id="dteGoB8JbddZwmDOOZu2-5" value="&lt;font style=&quot;vertical-align: inherit;&quot; dir=&quot;auto&quot;&gt;&lt;font style=&quot;vertical-align: inherit;&quot; dir=&quot;auto&quot;&gt;&lt;font style=&quot;vertical-align: inherit;&quot; dir=&quot;auto&quot;&gt;&lt;font style=&quot;vertical-align: inherit;&quot; dir=&quot;auto&quot;&gt;①商品一覧表示&lt;/font&gt;&lt;/font&gt;&lt;/font&gt;&lt;/font&gt;&lt;div&gt;&lt;font style=&quot;vertical-align: inherit;&quot; dir=&quot;auto&quot;&gt;&lt;font style=&quot;vertical-align: inherit;&quot; dir=&quot;auto&quot;&gt;&lt;font style=&quot;vertical-align: inherit;&quot; dir=&quot;auto&quot;&gt;&lt;font style=&quot;vertical-align: inherit;&quot; dir=&quot;auto&quot;&gt;&lt;font style=&quot;vertical-align: inherit;&quot; dir=&quot;auto&quot;&gt;&lt;font style=&quot;vertical-align: inherit;&quot; dir=&quot;auto&quot;&gt;・ログインしてなくても閲覧のみ可能&lt;/font&gt;&lt;/font&gt;&lt;/font&gt;&lt;/font&gt;&lt;/font&gt;&lt;/font&gt;&lt;/div&gt;" style="rounded=0;whiteSpace=wrap;html=1;fillColor=#ffe6cc;strokeColor=#d79b00;" parent="1" vertex="1">
          <mxGeometry x="130" y="90" width="120" height="60" as="geometry" />
        </mxCell>
        <mxCell id="f5f7ypSN5SrMMH_mo7Vk-1" value="②ログイン・新規登録&lt;div&gt;&lt;div&gt;&lt;font style=&quot;vertical-align: inherit;&quot; dir=&quot;auto&quot;&gt;&lt;font style=&quot;vertical-align: inherit;&quot; dir=&quot;auto&quot;&gt;&lt;font style=&quot;vertical-align: inherit;&quot; dir=&quot;auto&quot;&gt;&lt;font style=&quot;vertical-align: inherit;&quot; dir=&quot;auto&quot;&gt;&lt;font style=&quot;vertical-align: inherit;&quot; dir=&quot;auto&quot;&gt;&lt;font style=&quot;vertical-align: inherit;&quot; dir=&quot;auto&quot;&gt;&lt;font style=&quot;vertical-align: inherit;&quot; dir=&quot;auto&quot;&gt;&lt;font style=&quot;vertical-align: inherit;&quot; dir=&quot;auto&quot;&gt;・商品をカートに入れることができる&lt;/font&gt;&lt;/font&gt;&lt;/font&gt;&lt;/font&gt;&lt;/font&gt;&lt;/font&gt;&lt;/font&gt;&lt;/font&gt;&lt;/div&gt;&lt;/div&gt;&lt;div&gt;&lt;font style=&quot;vertical-align: inherit;&quot; dir=&quot;auto&quot;&gt;&lt;font style=&quot;vertical-align: inherit;&quot; dir=&quot;auto&quot;&gt;&lt;font style=&quot;vertical-align: inherit;&quot; dir=&quot;auto&quot;&gt;&lt;font style=&quot;vertical-align: inherit;&quot; dir=&quot;auto&quot;&gt;&lt;font style=&quot;vertical-align: inherit;&quot; dir=&quot;auto&quot;&gt;&lt;font style=&quot;vertical-align: inherit;&quot; dir=&quot;auto&quot;&gt;&lt;font style=&quot;vertical-align: inherit;&quot; dir=&quot;auto&quot;&gt;&lt;font style=&quot;vertical-align: inherit;&quot; dir=&quot;auto&quot;&gt;（・お気に入り登録ができる）&lt;/font&gt;&lt;/font&gt;&lt;/font&gt;&lt;/font&gt;&lt;/font&gt;&lt;/font&gt;&lt;/font&gt;&lt;/font&gt;&lt;/div&gt;" style="rounded=0;whiteSpace=wrap;html=1;fillColor=#ffe6cc;strokeColor=#d79b00;" parent="1" vertex="1">
          <mxGeometry x="820" y="80" width="230" height="60" as="geometry" />
        </mxCell>
        <mxCell id="f5f7ypSN5SrMMH_mo7Vk-2" value="" style="endArrow=classic;html=1;rounded=0;entryX=0.107;entryY=0.022;entryDx=0;entryDy=0;entryPerimeter=0;fillColor=#ffe6cc;strokeColor=#d79b00;" parent="1" source="dteGoB8JbddZwmDOOZu2-1" target="f5f7ypSN5SrMMH_mo7Vk-1" edge="1">
          <mxGeometry width="50" height="50" relative="1" as="geometry">
            <mxPoint x="483" y="100" as="sourcePoint" />
            <mxPoint x="380" y="172" as="targetPoint" />
          </mxGeometry>
        </mxCell>
        <mxCell id="f5f7ypSN5SrMMH_mo7Vk-4" value="" style="endArrow=none;dashed=1;html=1;dashPattern=1 3;strokeWidth=2;rounded=0;entryX=1;entryY=0.75;entryDx=0;entryDy=0;exitX=0;exitY=0.75;exitDx=0;exitDy=0;fillColor=#ffe6cc;strokeColor=#d79b00;" parent="1" source="f5f7ypSN5SrMMH_mo7Vk-1" target="dteGoB8JbddZwmDOOZu2-5" edge="1">
          <mxGeometry width="50" height="50" relative="1" as="geometry">
            <mxPoint x="380" y="240" as="sourcePoint" />
            <mxPoint x="430" y="190" as="targetPoint" />
          </mxGeometry>
        </mxCell>
        <mxCell id="f5f7ypSN5SrMMH_mo7Vk-5" value="③注文&lt;div&gt;&lt;div&gt;&lt;font style=&quot;vertical-align: inherit;&quot; dir=&quot;auto&quot;&gt;&lt;font style=&quot;vertical-align: inherit;&quot; dir=&quot;auto&quot;&gt;&lt;font style=&quot;vertical-align: inherit;&quot; dir=&quot;auto&quot;&gt;&lt;font style=&quot;vertical-align: inherit;&quot; dir=&quot;auto&quot;&gt;&lt;font style=&quot;vertical-align: inherit;&quot; dir=&quot;auto&quot;&gt;&lt;font style=&quot;vertical-align: inherit;&quot; dir=&quot;auto&quot;&gt;&lt;font style=&quot;vertical-align: inherit;&quot; dir=&quot;auto&quot;&gt;&lt;font style=&quot;vertical-align: inherit;&quot; dir=&quot;auto&quot;&gt;・カートの中に入れた商品を買う&lt;/font&gt;&lt;/font&gt;&lt;/font&gt;&lt;/font&gt;&lt;/font&gt;&lt;/font&gt;&lt;/font&gt;&lt;/font&gt;&lt;/div&gt;&lt;/div&gt;&lt;div&gt;&lt;font style=&quot;vertical-align: inherit;&quot; dir=&quot;auto&quot;&gt;&lt;font style=&quot;vertical-align: inherit;&quot; dir=&quot;auto&quot;&gt;&lt;font style=&quot;vertical-align: inherit;&quot; dir=&quot;auto&quot;&gt;&lt;font style=&quot;vertical-align: inherit;&quot; dir=&quot;auto&quot;&gt;&lt;font style=&quot;vertical-align: inherit;&quot; dir=&quot;auto&quot;&gt;&lt;font style=&quot;vertical-align: inherit;&quot; dir=&quot;auto&quot;&gt;&lt;font style=&quot;vertical-align: inherit;&quot; dir=&quot;auto&quot;&gt;&lt;font style=&quot;vertical-align: inherit;&quot; dir=&quot;auto&quot;&gt;・商品を受け取る住所を記入する&lt;/font&gt;&lt;/font&gt;&lt;/font&gt;&lt;/font&gt;&lt;/font&gt;&lt;/font&gt;&lt;/font&gt;&lt;/font&gt;&lt;/div&gt;&lt;div&gt;&lt;font style=&quot;vertical-align: inherit;&quot; dir=&quot;auto&quot;&gt;&lt;font style=&quot;vertical-align: inherit;&quot; dir=&quot;auto&quot;&gt;&lt;font style=&quot;vertical-align: inherit;&quot; dir=&quot;auto&quot;&gt;&lt;font style=&quot;vertical-align: inherit;&quot; dir=&quot;auto&quot;&gt;&lt;font style=&quot;vertical-align: inherit;&quot; dir=&quot;auto&quot;&gt;&lt;font style=&quot;vertical-align: inherit;&quot; dir=&quot;auto&quot;&gt;&lt;font style=&quot;vertical-align: inherit;&quot; dir=&quot;auto&quot;&gt;&lt;font style=&quot;vertical-align: inherit;&quot; dir=&quot;auto&quot;&gt;or登録済みの住所を選択&lt;/font&gt;&lt;/font&gt;&lt;/font&gt;&lt;/font&gt;&lt;/font&gt;&lt;/font&gt;&lt;/font&gt;&lt;/font&gt;&lt;/div&gt;" style="rounded=0;whiteSpace=wrap;html=1;fillColor=#ffe6cc;strokeColor=#d79b00;" parent="1" vertex="1">
          <mxGeometry x="820" y="220" width="230" height="60" as="geometry" />
        </mxCell>
        <mxCell id="f5f7ypSN5SrMMH_mo7Vk-6" value="" style="endArrow=classic;html=1;rounded=0;entryX=0.5;entryY=0;entryDx=0;entryDy=0;exitX=0.5;exitY=1;exitDx=0;exitDy=0;fillColor=#ffe6cc;strokeColor=#d79b00;" parent="1" source="f5f7ypSN5SrMMH_mo7Vk-1" target="f5f7ypSN5SrMMH_mo7Vk-5" edge="1">
          <mxGeometry width="50" height="50" relative="1" as="geometry">
            <mxPoint x="520" y="150" as="sourcePoint" />
            <mxPoint x="645" y="213" as="targetPoint" />
          </mxGeometry>
        </mxCell>
        <mxCell id="f5f7ypSN5SrMMH_mo7Vk-7" value="システム管理者&lt;div&gt;&lt;br&gt;&lt;/div&gt;" style="shape=umlActor;verticalLabelPosition=bottom;verticalAlign=top;html=1;outlineConnect=0;" parent="1" vertex="1">
          <mxGeometry x="175" y="200" width="30" height="60" as="geometry" />
        </mxCell>
        <mxCell id="f5f7ypSN5SrMMH_mo7Vk-10" value="" style="endArrow=classic;html=1;rounded=0;exitX=0;exitY=0.5;exitDx=0;exitDy=0;fillColor=#dae8fc;strokeColor=#6c8ebf;" parent="1" source="f5f7ypSN5SrMMH_mo7Vk-5" target="f5f7ypSN5SrMMH_mo7Vk-7" edge="1">
          <mxGeometry width="50" height="50" relative="1" as="geometry">
            <mxPoint x="380" y="240" as="sourcePoint" />
            <mxPoint x="430" y="190" as="targetPoint" />
          </mxGeometry>
        </mxCell>
        <mxCell id="f5f7ypSN5SrMMH_mo7Vk-11" value="" style="endArrow=classic;html=1;rounded=0;exitX=0.5;exitY=1;exitDx=0;exitDy=0;fillColor=#ffe6cc;strokeColor=#d79b00;" parent="1" source="f5f7ypSN5SrMMH_mo7Vk-5" target="f5f7ypSN5SrMMH_mo7Vk-12" edge="1">
          <mxGeometry width="50" height="50" relative="1" as="geometry">
            <mxPoint x="650" y="310" as="sourcePoint" />
            <mxPoint x="605" y="360" as="targetPoint" />
          </mxGeometry>
        </mxCell>
        <mxCell id="f5f7ypSN5SrMMH_mo7Vk-12" value="④支払い&lt;br&gt;&lt;div&gt;&lt;div&gt;&lt;font style=&quot;vertical-align: inherit;&quot; dir=&quot;auto&quot;&gt;&lt;font style=&quot;vertical-align: inherit;&quot; dir=&quot;auto&quot;&gt;&lt;font style=&quot;vertical-align: inherit;&quot; dir=&quot;auto&quot;&gt;&lt;font style=&quot;vertical-align: inherit;&quot; dir=&quot;auto&quot;&gt;&lt;font style=&quot;vertical-align: inherit;&quot; dir=&quot;auto&quot;&gt;&lt;font style=&quot;vertical-align: inherit;&quot; dir=&quot;auto&quot;&gt;&lt;font style=&quot;vertical-align: inherit;&quot; dir=&quot;auto&quot;&gt;&lt;font style=&quot;vertical-align: inherit;&quot; dir=&quot;auto&quot;&gt;・クレカのみ&lt;/font&gt;&lt;/font&gt;&lt;/font&gt;&lt;/font&gt;&lt;/font&gt;&lt;/font&gt;&lt;/font&gt;&lt;/font&gt;&lt;/div&gt;&lt;/div&gt;&lt;div&gt;&lt;font style=&quot;vertical-align: inherit;&quot; dir=&quot;auto&quot;&gt;&lt;font style=&quot;vertical-align: inherit;&quot; dir=&quot;auto&quot;&gt;&lt;font style=&quot;vertical-align: inherit;&quot; dir=&quot;auto&quot;&gt;&lt;font style=&quot;vertical-align: inherit;&quot; dir=&quot;auto&quot;&gt;&lt;font style=&quot;vertical-align: inherit;&quot; dir=&quot;auto&quot;&gt;&lt;font style=&quot;vertical-align: inherit;&quot; dir=&quot;auto&quot;&gt;&lt;font style=&quot;vertical-align: inherit;&quot; dir=&quot;auto&quot;&gt;&lt;font style=&quot;vertical-align: inherit;&quot; dir=&quot;auto&quot;&gt;・クレカ番号登録or登録済みのクレカ選択&lt;/font&gt;&lt;/font&gt;&lt;/font&gt;&lt;/font&gt;&lt;/font&gt;&lt;/font&gt;&lt;/font&gt;&lt;/font&gt;&lt;/div&gt;" style="rounded=0;whiteSpace=wrap;html=1;fillColor=#ffe6cc;strokeColor=#d79b00;" parent="1" vertex="1">
          <mxGeometry x="820" y="340" width="230" height="60" as="geometry" />
        </mxCell>
        <mxCell id="f5f7ypSN5SrMMH_mo7Vk-13" value="①在庫処理&lt;br&gt;&lt;div&gt;&lt;div&gt;&lt;font style=&quot;vertical-align: inherit;&quot; dir=&quot;auto&quot;&gt;&lt;font style=&quot;vertical-align: inherit;&quot; dir=&quot;auto&quot;&gt;&lt;font style=&quot;vertical-align: inherit;&quot; dir=&quot;auto&quot;&gt;&lt;font style=&quot;vertical-align: inherit;&quot; dir=&quot;auto&quot;&gt;&lt;font style=&quot;vertical-align: inherit;&quot; dir=&quot;auto&quot;&gt;&lt;font style=&quot;vertical-align: inherit;&quot; dir=&quot;auto&quot;&gt;&lt;font style=&quot;vertical-align: inherit;&quot; dir=&quot;auto&quot;&gt;&lt;font style=&quot;vertical-align: inherit;&quot; dir=&quot;auto&quot;&gt;・買われた商品を確保&lt;/font&gt;&lt;/font&gt;&lt;/font&gt;&lt;/font&gt;&lt;/font&gt;&lt;/font&gt;&lt;/font&gt;&lt;/font&gt;&lt;/div&gt;&lt;/div&gt;&lt;div&gt;&lt;font style=&quot;vertical-align: inherit;&quot; dir=&quot;auto&quot;&gt;&lt;font style=&quot;vertical-align: inherit;&quot; dir=&quot;auto&quot;&gt;&lt;font style=&quot;vertical-align: inherit;&quot; dir=&quot;auto&quot;&gt;&lt;font style=&quot;vertical-align: inherit;&quot; dir=&quot;auto&quot;&gt;&lt;font style=&quot;vertical-align: inherit;&quot; dir=&quot;auto&quot;&gt;&lt;font style=&quot;vertical-align: inherit;&quot; dir=&quot;auto&quot;&gt;&lt;font style=&quot;vertical-align: inherit;&quot; dir=&quot;auto&quot;&gt;&lt;font style=&quot;vertical-align: inherit;&quot; dir=&quot;auto&quot;&gt;・在庫数を更新しておく&lt;/font&gt;&lt;/font&gt;&lt;/font&gt;&lt;/font&gt;&lt;/font&gt;&lt;/font&gt;&lt;/font&gt;&lt;/font&gt;&lt;/div&gt;&lt;div&gt;・商品管理者へ連絡&lt;/div&gt;" style="rounded=0;whiteSpace=wrap;html=1;fillColor=#dae8fc;strokeColor=#6c8ebf;" parent="1" vertex="1">
          <mxGeometry x="90" y="320" width="230" height="60" as="geometry" />
        </mxCell>
        <mxCell id="f5f7ypSN5SrMMH_mo7Vk-14" value="" style="endArrow=classic;html=1;rounded=0;entryX=0.435;entryY=0;entryDx=0;entryDy=0;entryPerimeter=0;fillColor=#dae8fc;strokeColor=#6c8ebf;" parent="1" source="f5f7ypSN5SrMMH_mo7Vk-7" target="f5f7ypSN5SrMMH_mo7Vk-13" edge="1">
          <mxGeometry width="50" height="50" relative="1" as="geometry">
            <mxPoint x="204.5" y="290" as="sourcePoint" />
            <mxPoint x="204.5" y="360" as="targetPoint" />
          </mxGeometry>
        </mxCell>
        <mxCell id="f5f7ypSN5SrMMH_mo7Vk-16" value="②支払い確認&lt;br&gt;&lt;div&gt;・決済完了しているか&lt;/div&gt;" style="rounded=0;whiteSpace=wrap;html=1;fillColor=#dae8fc;strokeColor=#6c8ebf;" parent="1" vertex="1">
          <mxGeometry x="90" y="460" width="230" height="60" as="geometry" />
        </mxCell>
        <mxCell id="f5f7ypSN5SrMMH_mo7Vk-17" value="" style="endArrow=classic;html=1;rounded=0;entryX=0.5;entryY=0;entryDx=0;entryDy=0;exitX=0.5;exitY=1;exitDx=0;exitDy=0;fillColor=#dae8fc;strokeColor=#6c8ebf;" parent="1" source="f5f7ypSN5SrMMH_mo7Vk-13" target="f5f7ypSN5SrMMH_mo7Vk-16" edge="1">
          <mxGeometry width="50" height="50" relative="1" as="geometry">
            <mxPoint x="260" y="360" as="sourcePoint" />
            <mxPoint x="260" y="430" as="targetPoint" />
          </mxGeometry>
        </mxCell>
        <mxCell id="f5f7ypSN5SrMMH_mo7Vk-18" value="③出荷処理&lt;br&gt;&lt;div&gt;・配送会社へお願いする&lt;/div&gt;&lt;div&gt;・伝票作成&lt;/div&gt;" style="rounded=0;whiteSpace=wrap;html=1;fillColor=#dae8fc;strokeColor=#6c8ebf;" parent="1" vertex="1">
          <mxGeometry x="90" y="580" width="230" height="60" as="geometry" />
        </mxCell>
        <mxCell id="f5f7ypSN5SrMMH_mo7Vk-19" value="" style="endArrow=classic;html=1;rounded=0;entryX=0.5;entryY=0;entryDx=0;entryDy=0;exitX=0.5;exitY=1;exitDx=0;exitDy=0;fillColor=#dae8fc;strokeColor=#6c8ebf;" parent="1" source="f5f7ypSN5SrMMH_mo7Vk-16" target="f5f7ypSN5SrMMH_mo7Vk-18" edge="1">
          <mxGeometry width="50" height="50" relative="1" as="geometry">
            <mxPoint x="520" y="500" as="sourcePoint" />
            <mxPoint x="520" y="550" as="targetPoint" />
          </mxGeometry>
        </mxCell>
        <mxCell id="f5f7ypSN5SrMMH_mo7Vk-20" value="配送会社" style="shape=umlActor;verticalLabelPosition=bottom;verticalAlign=top;html=1;outlineConnect=0;" parent="1" vertex="1">
          <mxGeometry x="500" y="590" width="30" height="60" as="geometry" />
        </mxCell>
        <mxCell id="f5f7ypSN5SrMMH_mo7Vk-22" value="" style="endArrow=classic;html=1;rounded=0;exitX=1;exitY=0.5;exitDx=0;exitDy=0;fillColor=#d5e8d4;strokeColor=#82b366;" parent="1" source="f5f7ypSN5SrMMH_mo7Vk-18" target="f5f7ypSN5SrMMH_mo7Vk-20" edge="1">
          <mxGeometry width="50" height="50" relative="1" as="geometry">
            <mxPoint x="340" y="610" as="sourcePoint" />
            <mxPoint x="320" y="680" as="targetPoint" />
          </mxGeometry>
        </mxCell>
        <mxCell id="f5f7ypSN5SrMMH_mo7Vk-23" value="①発送&lt;div&gt;・発送通知を出す&lt;/div&gt;&lt;div&gt;（例）東京にある倉庫から中継所（大阪営業所）&lt;/div&gt;" style="rounded=0;whiteSpace=wrap;html=1;fillColor=#d5e8d4;strokeColor=#82b366;" parent="1" vertex="1">
          <mxGeometry x="670" y="520" width="190" height="60" as="geometry" />
        </mxCell>
        <mxCell id="f5f7ypSN5SrMMH_mo7Vk-24" value="" style="endArrow=classic;html=1;rounded=0;entryX=0;entryY=0.75;entryDx=0;entryDy=0;fillColor=#d5e8d4;strokeColor=#82b366;" parent="1" source="f5f7ypSN5SrMMH_mo7Vk-20" target="f5f7ypSN5SrMMH_mo7Vk-23" edge="1">
          <mxGeometry width="50" height="50" relative="1" as="geometry">
            <mxPoint x="470" y="630" as="sourcePoint" />
            <mxPoint x="620" y="630" as="targetPoint" />
          </mxGeometry>
        </mxCell>
        <mxCell id="f5f7ypSN5SrMMH_mo7Vk-25" value="⑤配送状況確認&lt;br&gt;&lt;div&gt;&lt;div&gt;&lt;font style=&quot;vertical-align: inherit;&quot; dir=&quot;auto&quot;&gt;&lt;font style=&quot;vertical-align: inherit;&quot; dir=&quot;auto&quot;&gt;&lt;font style=&quot;vertical-align: inherit;&quot; dir=&quot;auto&quot;&gt;&lt;font style=&quot;vertical-align: inherit;&quot; dir=&quot;auto&quot;&gt;&lt;font style=&quot;vertical-align: inherit;&quot; dir=&quot;auto&quot;&gt;&lt;font style=&quot;vertical-align: inherit;&quot; dir=&quot;auto&quot;&gt;&lt;font style=&quot;vertical-align: inherit;&quot; dir=&quot;auto&quot;&gt;&lt;font style=&quot;vertical-align: inherit;&quot; dir=&quot;auto&quot;&gt;・配送会社からの追跡機能を見ることができる&lt;/font&gt;&lt;/font&gt;&lt;/font&gt;&lt;/font&gt;&lt;/font&gt;&lt;/font&gt;&lt;/font&gt;&lt;/font&gt;&lt;/div&gt;&lt;/div&gt;" style="rounded=0;whiteSpace=wrap;html=1;fillColor=#ffe6cc;strokeColor=#d79b00;" parent="1" vertex="1">
          <mxGeometry x="960" y="480" width="230" height="60" as="geometry" />
        </mxCell>
        <mxCell id="f5f7ypSN5SrMMH_mo7Vk-26" value="" style="endArrow=classic;html=1;rounded=0;exitX=0.5;exitY=1;exitDx=0;exitDy=0;entryX=0.467;entryY=0.067;entryDx=0;entryDy=0;entryPerimeter=0;fillColor=#ffe6cc;strokeColor=#d79b00;" parent="1" source="f5f7ypSN5SrMMH_mo7Vk-12" target="f5f7ypSN5SrMMH_mo7Vk-25" edge="1">
          <mxGeometry width="50" height="50" relative="1" as="geometry">
            <mxPoint x="620" y="320" as="sourcePoint" />
            <mxPoint x="620" y="390" as="targetPoint" />
            <Array as="points">
              <mxPoint x="940" y="440" />
            </Array>
          </mxGeometry>
        </mxCell>
        <mxCell id="f5f7ypSN5SrMMH_mo7Vk-27" value="" style="endArrow=none;dashed=1;html=1;dashPattern=1 3;strokeWidth=2;rounded=0;exitX=-0.003;exitY=0.622;exitDx=0;exitDy=0;fillColor=#d5e8d4;strokeColor=#82b366;entryX=1;entryY=0.5;entryDx=0;entryDy=0;exitPerimeter=0;" parent="1" source="f5f7ypSN5SrMMH_mo7Vk-25" target="f5f7ypSN5SrMMH_mo7Vk-23" edge="1">
          <mxGeometry width="50" height="50" relative="1" as="geometry">
            <mxPoint x="390" y="640" as="sourcePoint" />
            <mxPoint x="600" y="580" as="targetPoint" />
            <Array as="points" />
          </mxGeometry>
        </mxCell>
        <mxCell id="f5f7ypSN5SrMMH_mo7Vk-29" value="④配送状況確認&lt;div&gt;・配達完了できているか確認をする&lt;/div&gt;" style="rounded=0;whiteSpace=wrap;html=1;fillColor=#dae8fc;strokeColor=#6c8ebf;" parent="1" vertex="1">
          <mxGeometry x="90" y="710" width="230" height="60" as="geometry" />
        </mxCell>
        <mxCell id="f5f7ypSN5SrMMH_mo7Vk-30" value="" style="endArrow=classic;html=1;rounded=0;entryX=0.5;entryY=0;entryDx=0;entryDy=0;exitX=0.5;exitY=1;exitDx=0;exitDy=0;fillColor=#dae8fc;strokeColor=#6c8ebf;" parent="1" source="f5f7ypSN5SrMMH_mo7Vk-18" target="f5f7ypSN5SrMMH_mo7Vk-29" edge="1">
          <mxGeometry width="50" height="50" relative="1" as="geometry">
            <mxPoint x="360" y="600" as="sourcePoint" />
            <mxPoint x="360" y="660" as="targetPoint" />
          </mxGeometry>
        </mxCell>
        <mxCell id="f5f7ypSN5SrMMH_mo7Vk-31" value="⑥1.返品申請&lt;br&gt;&lt;div&gt;&lt;div&gt;&lt;font style=&quot;vertical-align: inherit;&quot; dir=&quot;auto&quot;&gt;&lt;font style=&quot;vertical-align: inherit;&quot; dir=&quot;auto&quot;&gt;&lt;font style=&quot;vertical-align: inherit;&quot; dir=&quot;auto&quot;&gt;&lt;font style=&quot;vertical-align: inherit;&quot; dir=&quot;auto&quot;&gt;&lt;font style=&quot;vertical-align: inherit;&quot; dir=&quot;auto&quot;&gt;&lt;font style=&quot;vertical-align: inherit;&quot; dir=&quot;auto&quot;&gt;&lt;font style=&quot;vertical-align: inherit;&quot; dir=&quot;auto&quot;&gt;&lt;font style=&quot;vertical-align: inherit;&quot; dir=&quot;auto&quot;&gt;・商品に不備があるもしくはサイズ違いの場合サイトにて返品申請できる&lt;/font&gt;&lt;/font&gt;&lt;/font&gt;&lt;/font&gt;&lt;/font&gt;&lt;/font&gt;&lt;/font&gt;&lt;/font&gt;&lt;/div&gt;&lt;/div&gt;&lt;div&gt;&lt;font style=&quot;vertical-align: inherit;&quot; dir=&quot;auto&quot;&gt;&lt;font style=&quot;vertical-align: inherit;&quot; dir=&quot;auto&quot;&gt;&lt;font style=&quot;vertical-align: inherit;&quot; dir=&quot;auto&quot;&gt;&lt;font style=&quot;vertical-align: inherit;&quot; dir=&quot;auto&quot;&gt;&lt;font style=&quot;vertical-align: inherit;&quot; dir=&quot;auto&quot;&gt;&lt;font style=&quot;vertical-align: inherit;&quot; dir=&quot;auto&quot;&gt;&lt;font style=&quot;vertical-align: inherit;&quot; dir=&quot;auto&quot;&gt;&lt;font style=&quot;vertical-align: inherit;&quot; dir=&quot;auto&quot;&gt;・商品到着から１０日以内のみ受付可能&lt;/font&gt;&lt;/font&gt;&lt;/font&gt;&lt;/font&gt;&lt;/font&gt;&lt;/font&gt;&lt;/font&gt;&lt;/font&gt;&lt;/div&gt;&lt;div&gt;&lt;font style=&quot;vertical-align: inherit;&quot; dir=&quot;auto&quot;&gt;&lt;font style=&quot;vertical-align: inherit;&quot; dir=&quot;auto&quot;&gt;&lt;font style=&quot;vertical-align: inherit;&quot; dir=&quot;auto&quot;&gt;&lt;font style=&quot;vertical-align: inherit;&quot; dir=&quot;auto&quot;&gt;&lt;font style=&quot;vertical-align: inherit;&quot; dir=&quot;auto&quot;&gt;&lt;font style=&quot;vertical-align: inherit;&quot; dir=&quot;auto&quot;&gt;&lt;font style=&quot;vertical-align: inherit;&quot; dir=&quot;auto&quot;&gt;&lt;font style=&quot;vertical-align: inherit;&quot; dir=&quot;auto&quot;&gt;・送料は顧客負担&lt;/font&gt;&lt;/font&gt;&lt;/font&gt;&lt;/font&gt;&lt;/font&gt;&lt;/font&gt;&lt;/font&gt;&lt;/font&gt;&lt;/div&gt;" style="rounded=0;whiteSpace=wrap;html=1;fillColor=#ffe6cc;strokeColor=#d79b00;" parent="1" vertex="1">
          <mxGeometry x="960" y="930" width="230" height="100" as="geometry" />
        </mxCell>
        <mxCell id="f5f7ypSN5SrMMH_mo7Vk-32" value="" style="endArrow=classic;html=1;rounded=0;exitX=0.5;exitY=1;exitDx=0;exitDy=0;entryX=0.5;entryY=0;entryDx=0;entryDy=0;fillColor=#ffe6cc;strokeColor=#d79b00;" parent="1" source="f5f7ypSN5SrMMH_mo7Vk-25" target="f5f7ypSN5SrMMH_mo7Vk-31" edge="1">
          <mxGeometry width="50" height="50" relative="1" as="geometry">
            <mxPoint x="690" y="560" as="sourcePoint" />
            <mxPoint x="692" y="634" as="targetPoint" />
          </mxGeometry>
        </mxCell>
        <mxCell id="f5f7ypSN5SrMMH_mo7Vk-33" value="⑥受け取り完了&lt;div&gt;なんの不備もなく受け取り完了&lt;/div&gt;" style="rounded=0;whiteSpace=wrap;html=1;fillColor=#ffe6cc;strokeColor=#d79b00;" parent="1" vertex="1">
          <mxGeometry x="1300" y="480" width="230" height="60" as="geometry" />
        </mxCell>
        <mxCell id="f5f7ypSN5SrMMH_mo7Vk-34" value="" style="endArrow=classic;html=1;rounded=0;exitX=1;exitY=0.5;exitDx=0;exitDy=0;entryX=0;entryY=0.633;entryDx=0;entryDy=0;entryPerimeter=0;fillColor=#ffe6cc;strokeColor=#d79b00;" parent="1" source="f5f7ypSN5SrMMH_mo7Vk-25" target="f5f7ypSN5SrMMH_mo7Vk-33" edge="1">
          <mxGeometry width="50" height="50" relative="1" as="geometry">
            <mxPoint x="800" y="550" as="sourcePoint" />
            <mxPoint x="802" y="624" as="targetPoint" />
            <Array as="points" />
          </mxGeometry>
        </mxCell>
        <mxCell id="f5f7ypSN5SrMMH_mo7Vk-35" value="⑤返品受付&lt;br&gt;&lt;div&gt;・返品可能か確認する&lt;/div&gt;&lt;div&gt;・返品申請への返信をする&lt;/div&gt;" style="rounded=0;whiteSpace=wrap;html=1;fillColor=#dae8fc;strokeColor=#6c8ebf;" parent="1" vertex="1">
          <mxGeometry x="90" y="830" width="230" height="60" as="geometry" />
        </mxCell>
        <mxCell id="f5f7ypSN5SrMMH_mo7Vk-36" value="" style="endArrow=classic;html=1;rounded=0;entryX=0.5;entryY=0;entryDx=0;entryDy=0;exitX=0.5;exitY=1;exitDx=0;exitDy=0;fillColor=#dae8fc;strokeColor=#6c8ebf;" parent="1" source="f5f7ypSN5SrMMH_mo7Vk-29" target="f5f7ypSN5SrMMH_mo7Vk-35" edge="1">
          <mxGeometry width="50" height="50" relative="1" as="geometry">
            <mxPoint x="280" y="730" as="sourcePoint" />
            <mxPoint x="280" y="780" as="targetPoint" />
          </mxGeometry>
        </mxCell>
        <mxCell id="f5f7ypSN5SrMMH_mo7Vk-39" value="⑥受領&lt;div&gt;・商品到着から&lt;span style=&quot;background-color: initial;&quot;&gt;１０日以内&lt;/span&gt;&lt;/div&gt;&lt;div&gt;&lt;span style=&quot;background-color: initial;&quot;&gt;・返品内容に納得できる&lt;/span&gt;&lt;/div&gt;&lt;div&gt;&lt;span style=&quot;background-color: initial;&quot;&gt;・送料は顧客負担&lt;/span&gt;&lt;/div&gt;" style="rounded=0;whiteSpace=wrap;html=1;fillColor=#dae8fc;strokeColor=#6c8ebf;" parent="1" vertex="1">
          <mxGeometry x="90" y="970" width="230" height="60" as="geometry" />
        </mxCell>
        <mxCell id="f5f7ypSN5SrMMH_mo7Vk-43" value="&lt;div&gt;商品管理者&lt;/div&gt;" style="shape=umlActor;verticalLabelPosition=bottom;verticalAlign=top;html=1;outlineConnect=0;" parent="1" vertex="1">
          <mxGeometry x="490" y="290" width="30" height="60" as="geometry" />
        </mxCell>
        <mxCell id="Nhrgn-s1vujvqajuEZcP-2" value="①発送&lt;div&gt;・中継所に到着&lt;/div&gt;&lt;div&gt;（例）中継所（大阪営業所）から最寄り営業所&lt;/div&gt;" style="rounded=0;whiteSpace=wrap;html=1;fillColor=#d5e8d4;strokeColor=#82b366;" parent="1" vertex="1">
          <mxGeometry x="670" y="640" width="190" height="60" as="geometry" />
        </mxCell>
        <mxCell id="Nhrgn-s1vujvqajuEZcP-3" value="①発送&lt;div&gt;・最寄り営業所に到着&lt;/div&gt;" style="rounded=0;whiteSpace=wrap;html=1;fillColor=#d5e8d4;strokeColor=#82b366;" parent="1" vertex="1">
          <mxGeometry x="670" y="760" width="200" height="60" as="geometry" />
        </mxCell>
        <mxCell id="Nhrgn-s1vujvqajuEZcP-4" value="" style="endArrow=classic;html=1;rounded=0;fillColor=#d5e8d4;strokeColor=#82b366;exitX=0.5;exitY=1;exitDx=0;exitDy=0;" parent="1" source="f5f7ypSN5SrMMH_mo7Vk-23" target="Nhrgn-s1vujvqajuEZcP-2" edge="1">
          <mxGeometry width="50" height="50" relative="1" as="geometry">
            <mxPoint x="530" y="507" as="sourcePoint" />
            <mxPoint x="680" y="575" as="targetPoint" />
          </mxGeometry>
        </mxCell>
        <mxCell id="Nhrgn-s1vujvqajuEZcP-5" value="" style="endArrow=classic;html=1;rounded=0;fillColor=#d5e8d4;strokeColor=#82b366;exitX=0.5;exitY=1;exitDx=0;exitDy=0;" parent="1" source="Nhrgn-s1vujvqajuEZcP-2" target="Nhrgn-s1vujvqajuEZcP-3" edge="1">
          <mxGeometry width="50" height="50" relative="1" as="geometry">
            <mxPoint x="540" y="517" as="sourcePoint" />
            <mxPoint x="690" y="585" as="targetPoint" />
          </mxGeometry>
        </mxCell>
        <mxCell id="Nhrgn-s1vujvqajuEZcP-6" value="①配達完了&lt;div&gt;・お客さんの家に到着&lt;/div&gt;" style="rounded=0;whiteSpace=wrap;html=1;fillColor=#d5e8d4;strokeColor=#82b366;" parent="1" vertex="1">
          <mxGeometry x="670" y="890" width="200" height="60" as="geometry" />
        </mxCell>
        <mxCell id="Nhrgn-s1vujvqajuEZcP-8" value="" style="endArrow=classic;html=1;rounded=0;fillColor=#d5e8d4;strokeColor=#82b366;exitX=0.5;exitY=1;exitDx=0;exitDy=0;entryX=0.5;entryY=0;entryDx=0;entryDy=0;" parent="1" source="Nhrgn-s1vujvqajuEZcP-3" target="Nhrgn-s1vujvqajuEZcP-6" edge="1">
          <mxGeometry width="50" height="50" relative="1" as="geometry">
            <mxPoint x="775" y="710" as="sourcePoint" />
            <mxPoint x="778" y="770" as="targetPoint" />
          </mxGeometry>
        </mxCell>
        <mxCell id="Nhrgn-s1vujvqajuEZcP-14" value="" style="endArrow=classic;html=1;rounded=0;fillColor=#f8cecc;strokeColor=#b85450;" parent="1" source="f5f7ypSN5SrMMH_mo7Vk-13" target="f5f7ypSN5SrMMH_mo7Vk-43" edge="1">
          <mxGeometry width="50" height="50" relative="1" as="geometry">
            <mxPoint x="450" y="480" as="sourcePoint" />
            <mxPoint x="500" y="430" as="targetPoint" />
          </mxGeometry>
        </mxCell>
        <mxCell id="Nhrgn-s1vujvqajuEZcP-16" value="当日17:00" style="text;strokeColor=none;align=center;fillColor=none;html=1;verticalAlign=middle;whiteSpace=wrap;rounded=0;" parent="1" vertex="1">
          <mxGeometry x="770" y="595" width="60" height="30" as="geometry" />
        </mxCell>
        <mxCell id="Nhrgn-s1vujvqajuEZcP-17" value="翌日12:00" style="text;strokeColor=none;align=center;fillColor=none;html=1;verticalAlign=middle;whiteSpace=wrap;rounded=0;" parent="1" vertex="1">
          <mxGeometry x="780" y="720" width="60" height="30" as="geometry" />
        </mxCell>
        <mxCell id="Nhrgn-s1vujvqajuEZcP-18" value="翌々日12:00" style="text;strokeColor=none;align=center;fillColor=none;html=1;verticalAlign=middle;whiteSpace=wrap;rounded=0;" parent="1" vertex="1">
          <mxGeometry x="780" y="845" width="120" height="30" as="geometry" />
        </mxCell>
        <mxCell id="Nhrgn-s1vujvqajuEZcP-21" value="①配送準備&lt;div&gt;・買われた商品の梱包&lt;/div&gt;&lt;div&gt;・商品ID確認&lt;/div&gt;" style="rounded=0;whiteSpace=wrap;html=1;fillColor=#f8cecc;strokeColor=#b85450;" parent="1" vertex="1">
          <mxGeometry x="550" y="390" width="230" height="60" as="geometry" />
        </mxCell>
        <mxCell id="Nhrgn-s1vujvqajuEZcP-22" value="" style="endArrow=classic;html=1;rounded=0;fillColor=#f8cecc;strokeColor=#b85450;entryX=0.571;entryY=0.039;entryDx=0;entryDy=0;entryPerimeter=0;" parent="1" target="Nhrgn-s1vujvqajuEZcP-21" edge="1">
          <mxGeometry width="50" height="50" relative="1" as="geometry">
            <mxPoint x="520" y="320" as="sourcePoint" />
            <mxPoint x="500" y="332" as="targetPoint" />
          </mxGeometry>
        </mxCell>
        <mxCell id="Nhrgn-s1vujvqajuEZcP-23" value="" style="endArrow=classic;html=1;rounded=0;fillColor=#f8cecc;strokeColor=#b85450;entryX=1;entryY=0.5;entryDx=0;entryDy=0;exitX=0;exitY=0.5;exitDx=0;exitDy=0;" parent="1" source="Nhrgn-s1vujvqajuEZcP-21" target="f5f7ypSN5SrMMH_mo7Vk-18" edge="1">
          <mxGeometry width="50" height="50" relative="1" as="geometry">
            <mxPoint x="530" y="330" as="sourcePoint" />
            <mxPoint x="711" y="392" as="targetPoint" />
          </mxGeometry>
        </mxCell>
        <mxCell id="dlepdcswQFGihdw1Z5Du-1" value="" style="endArrow=classic;html=1;rounded=0;entryX=0.47;entryY=-0.039;entryDx=0;entryDy=0;exitX=0.47;exitY=0.983;exitDx=0;exitDy=0;fillColor=#dae8fc;strokeColor=#6c8ebf;exitPerimeter=0;entryPerimeter=0;" edge="1" parent="1" source="f5f7ypSN5SrMMH_mo7Vk-35" target="f5f7ypSN5SrMMH_mo7Vk-39">
          <mxGeometry width="50" height="50" relative="1" as="geometry">
            <mxPoint x="215" y="780" as="sourcePoint" />
            <mxPoint x="215" y="840" as="targetPoint" />
          </mxGeometry>
        </mxCell>
        <mxCell id="dlepdcswQFGihdw1Z5Du-2" value="" style="endArrow=classic;html=1;rounded=0;entryX=1;entryY=0.25;entryDx=0;entryDy=0;exitX=0;exitY=0.5;exitDx=0;exitDy=0;fillColor=#dae8fc;strokeColor=#6c8ebf;" edge="1" parent="1" source="f5f7ypSN5SrMMH_mo7Vk-31" target="f5f7ypSN5SrMMH_mo7Vk-39">
          <mxGeometry width="50" height="50" relative="1" as="geometry">
            <mxPoint x="208" y="899" as="sourcePoint" />
            <mxPoint x="208" y="978" as="targetPoint" />
          </mxGeometry>
        </mxCell>
        <mxCell id="dlepdcswQFGihdw1Z5Du-3" value="配送会社" style="shape=umlActor;verticalLabelPosition=bottom;verticalAlign=top;html=1;outlineConnect=0;" vertex="1" parent="1">
          <mxGeometry x="830" y="1030" width="30" height="60" as="geometry" />
        </mxCell>
        <mxCell id="dlepdcswQFGihdw1Z5Du-5" value="" style="endArrow=classic;html=1;rounded=0;exitX=0;exitY=0.5;exitDx=0;exitDy=0;fillColor=#ffe6cc;strokeColor=#d79b00;" edge="1" parent="1" source="f5f7ypSN5SrMMH_mo7Vk-31" target="dlepdcswQFGihdw1Z5Du-3">
          <mxGeometry width="50" height="50" relative="1" as="geometry">
            <mxPoint x="745" y="1070" as="sourcePoint" />
            <mxPoint x="855" y="1078" as="targetPoint" />
            <Array as="points" />
          </mxGeometry>
        </mxCell>
        <mxCell id="dlepdcswQFGihdw1Z5Du-6" value="" style="endArrow=classic;html=1;rounded=0;fillColor=#d5e8d4;strokeColor=#82b366;exitX=0;exitY=0.3333333333333333;exitDx=0;exitDy=0;entryX=1;entryY=0.3333333333333333;entryDx=0;entryDy=0;exitPerimeter=0;entryPerimeter=0;" edge="1" parent="1" source="dlepdcswQFGihdw1Z5Du-7" target="dlepdcswQFGihdw1Z5Du-8">
          <mxGeometry width="50" height="50" relative="1" as="geometry">
            <mxPoint x="440" y="1050" as="sourcePoint" />
            <mxPoint x="440" y="1120" as="targetPoint" />
          </mxGeometry>
        </mxCell>
        <mxCell id="dlepdcswQFGihdw1Z5Du-8" value="&lt;div&gt;商品管理者&lt;/div&gt;" style="shape=umlActor;verticalLabelPosition=bottom;verticalAlign=top;html=1;outlineConnect=0;" vertex="1" parent="1">
          <mxGeometry x="500" y="1030" width="30" height="60" as="geometry" />
        </mxCell>
        <mxCell id="dlepdcswQFGihdw1Z5Du-10" value="&lt;div&gt;⑦返金、再送対応&lt;/div&gt;&lt;div&gt;・商品管理者から通知があってから&lt;/div&gt;&lt;div&gt;・お客さんのクレジットカードに返金&lt;/div&gt;&lt;div&gt;・売上取り消し&lt;/div&gt;" style="rounded=0;whiteSpace=wrap;html=1;fillColor=#dae8fc;strokeColor=#6c8ebf;" vertex="1" parent="1">
          <mxGeometry x="100" y="1160" width="230" height="80" as="geometry" />
        </mxCell>
        <mxCell id="dlepdcswQFGihdw1Z5Du-13" value="①返品処理&lt;div&gt;・商品の状態をチェック&lt;/div&gt;&lt;div&gt;※良品＝倉庫に戻す、不良品＝破棄or値下げなど&lt;/div&gt;&lt;div&gt;・確認が終わったらシステム管理者へ&lt;/div&gt;" style="rounded=0;whiteSpace=wrap;html=1;fillColor=#f8cecc;strokeColor=#b85450;" vertex="1" parent="1">
          <mxGeometry x="390" y="1169" width="266" height="80" as="geometry" />
        </mxCell>
        <mxCell id="dlepdcswQFGihdw1Z5Du-15" value="" style="endArrow=classic;html=1;rounded=0;fillColor=#f8cecc;strokeColor=#b85450;entryX=0.5;entryY=0;entryDx=0;entryDy=0;" edge="1" parent="1" source="dlepdcswQFGihdw1Z5Du-8" target="dlepdcswQFGihdw1Z5Du-13">
          <mxGeometry width="50" height="50" relative="1" as="geometry">
            <mxPoint x="510" y="1210" as="sourcePoint" />
            <mxPoint x="691" y="1302" as="targetPoint" />
          </mxGeometry>
        </mxCell>
        <mxCell id="dlepdcswQFGihdw1Z5Du-16" value="" style="endArrow=classic;html=1;rounded=0;entryX=0.472;entryY=-0.046;entryDx=0;entryDy=0;exitX=0.5;exitY=1;exitDx=0;exitDy=0;fillColor=#dae8fc;strokeColor=#6c8ebf;entryPerimeter=0;" edge="1" parent="1" source="f5f7ypSN5SrMMH_mo7Vk-39" target="dlepdcswQFGihdw1Z5Du-10">
          <mxGeometry width="50" height="50" relative="1" as="geometry">
            <mxPoint x="189.5" y="1190" as="sourcePoint" />
            <mxPoint x="189.5" y="1269" as="targetPoint" />
          </mxGeometry>
        </mxCell>
        <mxCell id="dlepdcswQFGihdw1Z5Du-17" value="" style="endArrow=classic;html=1;rounded=0;fillColor=#f8cecc;strokeColor=#b85450;entryX=1.017;entryY=0.362;entryDx=0;entryDy=0;exitX=0;exitY=0.5;exitDx=0;exitDy=0;entryPerimeter=0;" edge="1" parent="1" source="dlepdcswQFGihdw1Z5Du-13" target="dlepdcswQFGihdw1Z5Du-10">
          <mxGeometry width="50" height="50" relative="1" as="geometry">
            <mxPoint x="520" y="1220" as="sourcePoint" />
            <mxPoint x="557" y="1320" as="targetPoint" />
          </mxGeometry>
        </mxCell>
        <mxCell id="dlepdcswQFGihdw1Z5Du-18" value="⑧完了&lt;div&gt;返金完了に更新&lt;/div&gt;" style="rounded=0;whiteSpace=wrap;html=1;fillColor=#dae8fc;strokeColor=#6c8ebf;" vertex="1" parent="1">
          <mxGeometry x="100" y="1330" width="230" height="80" as="geometry" />
        </mxCell>
        <mxCell id="dlepdcswQFGihdw1Z5Du-19" value="" style="endArrow=classic;html=1;rounded=0;entryX=0.5;entryY=0;entryDx=0;entryDy=0;exitX=0.5;exitY=1;exitDx=0;exitDy=0;fillColor=#dae8fc;strokeColor=#6c8ebf;" edge="1" parent="1" source="dlepdcswQFGihdw1Z5Du-10" target="dlepdcswQFGihdw1Z5Du-18">
          <mxGeometry width="50" height="50" relative="1" as="geometry">
            <mxPoint x="215" y="1040" as="sourcePoint" />
            <mxPoint x="219" y="1326" as="targetPoint" />
          </mxGeometry>
        </mxCell>
        <mxCell id="dlepdcswQFGihdw1Z5Du-21" value="" style="endArrow=classic;html=1;rounded=0;fillColor=#d5e8d4;strokeColor=#82b366;exitX=0;exitY=0.3333333333333333;exitDx=0;exitDy=0;entryX=1;entryY=0.3333333333333333;entryDx=0;entryDy=0;exitPerimeter=0;entryPerimeter=0;" edge="1" parent="1" source="dlepdcswQFGihdw1Z5Du-3" target="dlepdcswQFGihdw1Z5Du-7">
          <mxGeometry width="50" height="50" relative="1" as="geometry">
            <mxPoint x="830" y="1050" as="sourcePoint" />
            <mxPoint x="530" y="1050" as="targetPoint" />
          </mxGeometry>
        </mxCell>
        <mxCell id="dlepdcswQFGihdw1Z5Du-7" value="返品された商品を発送" style="text;strokeColor=none;align=center;fillColor=none;html=1;verticalAlign=middle;whiteSpace=wrap;rounded=0;" vertex="1" parent="1">
          <mxGeometry x="620" y="1020" width="140" height="30" as="geometry" />
        </mxCell>
      </root>
    </mxGraphModel>
  </diagram>
</mxfile>
